<svg xmlns="http://www.w3.org/2000/svg" aria-hidden="true" style="position:absolute;width:0;height:0;overflow:hidden">
  <defs>
    <symbol id="mobile-icon" viewBox="0 0 21 32">
      <path
        d="M16.935 2.286H3.636c-1.377 0-2.494 1.152-2.494 2.571v22.286c0 1.42 1.117 2.571 2.494 2.571h13.299c1.377 0 2.494-1.152 2.494-2.571V4.857c0-1.42-1.117-2.571-2.494-2.571zm-4.156 23.952c0 .52-.374.905-.831.905H8.577c-.41 0-.784-.386-.784-.857s.374-.857.831-.857h3.325c.457 0 .831.386.831.809zm3.325-3.381H4.468V5.714h11.636v17.143z" />
    </symbol>
    <symbol id="facebook-icon" viewBox="0 0 32 32">
      <path stroke-linecap="round" stroke-linejoin="round" stroke-width="2.667"
        d="M24 2.667h-4a6.67 6.67 0 0 0-6.667 6.667v4h-4v5.333h4v10.667h5.333V18.667h4l1.333-5.333h-5.333v-4A1.334 1.334 0 0 1 20 8h4V2.667z" />
    </symbol>
    <symbol id="twitter-icon" viewBox="0 0 32 32">
      <path stroke-linecap="round" stroke-linejoin="round" stroke-width="2.667"
        d="M30.667 4.013a14.542 14.542 0 0 1-4.187 2.04 5.975 5.975 0 0 0-6.637-1.661A5.979 5.979 0 0 0 16 10.053v1.333a14.211 14.211 0 0 1-12-6.04s-5.333 12 6.667 17.333a15.519 15.519 0 0 1-9.333 2.667c12 6.667 26.667 0 26.667-15.333a5.966 5.966 0 0 0-.107-1.107 10.288 10.288 0 0 0 2.773-4.893z" />
    </symbol>
    <symbol id="instagram-icon" viewBox="0 0 32 32">
      <path stroke-linecap="round" stroke-linejoin="round" stroke-width="2.667"
        d="M22.667 2.667H9.334a6.667 6.667 0 0 0-6.667 6.667v13.333a6.667 6.667 0 0 0 6.667 6.667h13.333a6.667 6.667 0 0 0 6.667-6.667V9.334a6.667 6.667 0 0 0-6.667-6.667z" />
      <path stroke-linecap="round" stroke-linejoin="round" stroke-width="2.667"
        d="M21.333 15.16a5.338 5.338 0 0 1-6.123 6.049 5.334 5.334 0 1 1 6.124-6.048zM23.333 8.667h.013" />
    </symbol>
    <symbol id="time-icon" viewBox="0 0 26 32">
      <path
        d="M23.664 2.689h1.614a.531.531 0 0 0 .538-.538V1.075a.53.53 0 0 0-.538-.538H.538A.53.53 0 0 0 0 1.075v1.076a.53.53 0 0 0 .538.538h1.613c0 6.219 2.975 10.723 6.269 12.908-3.294 2.185-6.269 6.689-6.269 12.908H.538a.53.53 0 0 0-.538.538v1.076c0 .302.235.538.538.538h24.74a.531.531 0 0 0 .538-.538v-1.076a.531.531 0 0 0-.538-.538h-1.614c0-6.219-2.975-10.723-6.269-12.908 3.294-2.185 6.269-6.689 6.269-12.908zm-2.151 0c0 2.454-.555 4.622-1.429 6.454H5.731c-.874-1.832-1.429-4-1.429-6.454h17.21zm-.958 20.437H5.261c1.244-3.244 3.479-5.546 5.714-6.454h3.866c2.235.908 4.471 3.21 5.714 6.454z" />
    </symbol>
    <symbol id="heart-icon" viewBox="0 0 34 32">
      <path
        d="M17.067 30.172c.305 0 .61-.114.838-.343l11.867-11.428c.171-.171 4.362-4 4.362-8.571 0-5.581-3.41-8.914-9.105-8.914-3.333 0-6.457 2.629-7.962 4.114C15.562 3.544 12.438.916 9.105.916 3.41.916 0 4.249 0 9.83c0 4.571 4.191 8.4 4.343 8.533L16.229 29.83c.229.229.533.343.838.343z" />
    </symbol>
    <symbol id="snake-icon" viewBox="0 0 41 32">
      <path
        d="m21.673 12.898 2.674 1.245 3.98-1.184v-2.775c0-4.714-3.98-8.49-8.735-8.49-4.735 0-8.735 3.755-8.735 8.429v12.653c0 1.163-.939 2.082-2.082 2.082s-2.082-.918-2.082-2.082v-5.347H-.001v5.429a8.753 8.753 0 0 0 8.755 8.755c4.796 0 8.755-3.857 8.755-8.633V10.49c0-1.143.939-2.082 2.082-2.082s2.082.939 2.082 2.082v2.408zm10.817 4.531v5.612c0 1.143-.939 2.061-2.082 2.061s-2.082-.918-2.082-2.061v-5.51l-3.98 1.184-2.674-1.245v5.469c0 4.796 3.939 8.674 8.755 8.674a8.753 8.753 0 0 0 8.755-8.755v-5.429h-6.694z" />
    </symbol>
    <symbol id="cursor-icon" viewBox="0 0 21 32">
      <path
        d="M19.042 18.067 1.832.857a1.003 1.003 0 0 0-.756-.319C.942.538.79.572.673.622a1.079 1.079 0 0 0-.672.992v25.277c0 .437.269.824.672.992.118.05.269.084.403.084.286 0 .555-.118.756-.319l5.244-5.244 3.21 7.597a1.08 1.08 0 0 0 1.412.571l2.975-1.261a1.08 1.08 0 0 0 .571-1.412l-3.378-8h6.42c.437 0 .824-.269.992-.672a1.038 1.038 0 0 0-.235-1.16z" />
    </symbol>
    <symbol id="play-icon" viewBox="0 0 28 32">
      <path
        d="M26.088 12.891c2.441 1.354 2.441 4.864 0 6.218L4.933 30.848c-2.37 1.315-5.281-.399-5.281-3.109V4.262c0-2.71 2.911-4.424 5.281-3.109l21.155 11.739z" />
    </symbol>
    <symbol id="checkmark-icon" viewBox="0 0 45 32">
      <path
        d="M42.17.638a2.108 2.108 0 0 0-3.022 0L13.542 26.74 3.699 16.707c-.835-.851-2.188-.851-3.023 0s-.835 2.23 0 3.081L12.03 31.362a2.11 2.11 0 0 0 3.023 0L42.17 3.719a2.208 2.208 0 0 0 0-3.081z" />
    </symbol>
    <symbol id="star-icon" viewBox="0 0 36 32">
      <path
        d="M33.813 11.487c-.102-.296-.29-.556-.541-.749s-.553-.308-.869-.333l-9.261-.725L19.134.944c-.128-.281-.335-.52-.598-.688a1.638 1.638 0 0 0-1.764-.001 1.6 1.6 0 0 0-.599.687l-4.008 8.737-9.261.725c-.311.024-.609.136-.857.323s-.437.439-.543.728a1.577 1.577 0 0 0 .394 1.689l6.844 6.57-2.421 10.321c-.074.312-.05.639.068.938s.324.556.592.739a1.64 1.64 0 0 0 1.826.013l8.845-5.807 8.846 5.807a1.646 1.646 0 0 0 1.857-.04c.268-.193.47-.462.579-.771.109-.309.118-.644.028-.958l-2.971-10.238 7.369-6.53c.483-.429.66-1.097.452-1.704z" />
    </symbol>
    <symbol id="star-empty-icon" viewBox="0 0 34 32">
      <path
        d="M8.624 19.716 6.203 30.037c-.075.313-.052.64.065.94s.323.558.591.74a1.635 1.635 0 0 0 1.828.01l8.845-5.807 8.845 5.807a1.646 1.646 0 0 0 1.857-.04c.268-.193.47-.462.579-.771s.118-.644.028-.958L25.87 19.72l7.369-6.53a1.578 1.578 0 0 0-.088-2.451 1.632 1.632 0 0 0-.87-.332l-9.261-.726L19.012.945c-.128-.281-.335-.52-.598-.688a1.638 1.638 0 0 0-1.764 0 1.6 1.6 0 0 0-.598.688l-4.008 8.736-9.261.725c-.311.024-.609.136-.857.323s-.437.439-.543.728a1.577 1.577 0 0 0 .394 1.689l6.846 6.57zm4.635-6.92c.29-.023.568-.121.806-.286s.426-.39.545-.651l2.922-6.368 2.922 6.368a1.627 1.627 0 0 0 1.351.937l6.453.504-5.314 4.709a1.587 1.587 0 0 0-.476 1.628l2.036 7.014-6.069-3.985a1.634 1.634 0 0 0-1.802 0l-6.342 4.164 1.706-7.272a1.579 1.579 0 0 0-.448-1.504l-4.935-4.738 6.644-.521z" />
    </symbol>
  </defs>
</svg>