<svg xmlns="http://www.w3.org/2000/svg" aria-hidden="true" style="position:absolute;width:0;height:0;overflow:hidden">
  <defs>
    <symbol id="mobile-icon" viewBox="0 0 21 32">
      <path
        d="M16.935 2.286H3.636c-1.377 0-2.494 1.152-2.494 2.571v22.286c0 1.42 1.117 2.571 2.494 2.571h13.299c1.377 0 2.494-1.152 2.494-2.571V4.857c0-1.42-1.117-2.571-2.494-2.571zm-4.156 23.952c0 .52-.374.905-.831.905H8.577c-.41 0-.784-.386-.784-.857s.374-.857.831-.857h3.325c.457 0 .831.386.831.809zm3.325-3.381H4.468V5.714h11.636v17.143z" />
    </symbol>
    <symbol id="facebook-icon" viewBox="0 0 32 32">
      <path
        d="M21.329 5.313h2.921V.225C23.746.156 22.013 0 19.994 0c-4.212 0-7.097 2.649-7.097 7.519V12H8.249v5.688h4.648V32h5.699V17.689h4.46l.708-5.688h-5.169V8.082c.001-1.644.444-2.769 2.735-2.769z" />
    </symbol>
    <symbol id="twitter-icon" viewBox="0 0 32 32">
      <path
        d="M32 6.078c-1.19.522-2.458.868-3.78 1.036a6.523 6.523 0 0 0 2.886-3.626 13.11 13.11 0 0 1-4.16 1.588A6.574 6.574 0 0 0 22.154 3c-3.632 0-6.556 2.948-6.556 6.562 0 .52.044 1.02.152 1.496-5.454-.266-10.28-2.88-13.522-6.862a6.605 6.605 0 0 0-.898 3.316 6.57 6.57 0 0 0 2.914 5.452 6.479 6.479 0 0 1-2.964-.808v.072c0 3.188 2.274 5.836 5.256 6.446a6.548 6.548 0 0 1-1.72.216 5.8 5.8 0 0 1-1.242-.112c.85 2.598 3.262 4.508 6.13 4.57a13.182 13.182 0 0 1-8.134 2.798c-.538 0-1.054-.024-1.57-.09A18.469 18.469 0 0 0 10.064 29c12.072 0 18.672-10 18.672-18.668 0-.29-.01-.57-.024-.848A13.087 13.087 0 0 0 32 6.078z" />
    </symbol>
    <symbol id="instagram-icon" viewBox="0 0 32 32">
      <path
        d="M31.969 9.408c-.075-1.7-.35-2.869-.744-3.882a7.803 7.803 0 0 0-1.85-2.838A7.867 7.867 0 0 0 26.543.844C25.524.45 24.361.175 22.661.1 20.948.019 20.404 0 16.06 0s-4.888.019-6.595.094c-1.7.075-2.869.35-3.882.744a7.803 7.803 0 0 0-2.838 1.85A7.867 7.867 0 0 0 .901 5.52C.507 6.539.232 7.702.157 9.402c-.081 1.713-.1 2.257-.1 6.601s.019 4.888.094 6.595c.075 1.7.35 2.869.744 3.882a7.895 7.895 0 0 0 1.85 2.838 7.867 7.867 0 0 0 2.832 1.844c1.019.394 2.182.669 3.882.744 1.706.075 2.25.094 6.595.094s4.888-.019 6.595-.094c1.7-.075 2.869-.35 3.882-.744a8.181 8.181 0 0 0 4.682-4.682c.394-1.019.669-2.182.744-3.882.075-1.707.094-2.25.094-6.595s-.006-4.888-.081-6.595zm-2.882 13.065c-.069 1.563-.331 2.407-.55 2.969a5.31 5.31 0 0 1-3.038 3.038c-.563.219-1.413.481-2.969.55-1.688.075-2.194.094-6.464.094s-4.782-.019-6.464-.094c-1.563-.069-2.407-.331-2.969-.55a4.926 4.926 0 0 1-1.838-1.194 4.974 4.974 0 0 1-1.194-1.838c-.219-.563-.481-1.413-.55-2.969-.075-1.688-.094-2.194-.094-6.464s.019-4.782.094-6.464c.069-1.563.331-2.407.55-2.969a4.868 4.868 0 0 1 1.2-1.838A4.974 4.974 0 0 1 6.639 3.55c.563-.219 1.413-.481 2.969-.55 1.688-.075 2.194-.094 6.464-.094 4.276 0 4.782.019 6.464.094 1.563.069 2.407.331 2.969.55a4.914 4.914 0 0 1 1.838 1.194 4.974 4.974 0 0 1 1.194 1.838c.219.563.481 1.413.55 2.969.075 1.688.094 2.194.094 6.464s-.019 4.77-.094 6.458z" />
      <path
        d="M16.059 7.783c-4.538 0-8.22 3.682-8.22 8.22s3.682 8.22 8.22 8.22 8.22-3.682 8.22-8.22-3.682-8.22-8.22-8.22zm0 13.552a5.333 5.333 0 0 1 0-10.664 5.333 5.333 0 0 1 0 10.664zM26.524 7.458a1.919 1.919 0 1 1-3.838 0 1.919 1.919 0 0 1 3.838 0z" />
    </symbol>
    <symbol id="time-icon" viewBox="0 0 26 32">
      <path
        d="M23.664 2.689h1.614a.531.531 0 0 0 .538-.538V1.075a.53.53 0 0 0-.538-.538H.538A.53.53 0 0 0 0 1.075v1.076a.53.53 0 0 0 .538.538h1.613c0 6.219 2.975 10.723 6.269 12.908-3.294 2.185-6.269 6.689-6.269 12.908H.538a.53.53 0 0 0-.538.538v1.076c0 .302.235.538.538.538h24.74a.531.531 0 0 0 .538-.538v-1.076a.531.531 0 0 0-.538-.538h-1.614c0-6.219-2.975-10.723-6.269-12.908 3.294-2.185 6.269-6.689 6.269-12.908zm-2.151 0c0 2.454-.555 4.622-1.429 6.454H5.731c-.874-1.832-1.429-4-1.429-6.454h17.21zm-.958 20.437H5.261c1.244-3.244 3.479-5.546 5.714-6.454h3.866c2.235.908 4.471 3.21 5.714 6.454z" />
    </symbol>
    <symbol id="heart-icon" viewBox="0 0 34 32">
      <path
        d="M17.067 30.172c.305 0 .61-.114.838-.343l11.867-11.428c.171-.171 4.362-4 4.362-8.571 0-5.581-3.41-8.914-9.105-8.914-3.333 0-6.457 2.629-7.962 4.114C15.562 3.544 12.438.916 9.105.916 3.41.916 0 4.249 0 9.83c0 4.571 4.191 8.4 4.343 8.533L16.229 29.83c.229.229.533.343.838.343z" />
    </symbol>
    <symbol id="snake-icon" viewBox="0 0 41 32">
      <path
        d="m21.673 12.898 2.674 1.245 3.98-1.184v-2.775c0-4.714-3.98-8.49-8.735-8.49-4.735 0-8.735 3.755-8.735 8.429v12.653c0 1.163-.939 2.082-2.082 2.082s-2.082-.918-2.082-2.082v-5.347H-.001v5.429a8.753 8.753 0 0 0 8.755 8.755c4.796 0 8.755-3.857 8.755-8.633V10.49c0-1.143.939-2.082 2.082-2.082s2.082.939 2.082 2.082v2.408zm10.817 4.531v5.612c0 1.143-.939 2.061-2.082 2.061s-2.082-.918-2.082-2.061v-5.51l-3.98 1.184-2.674-1.245v5.469c0 4.796 3.939 8.674 8.755 8.674a8.753 8.753 0 0 0 8.755-8.755v-5.429h-6.694z" />
    </symbol>
    <symbol id="cursor-icon" viewBox="0 0 21 32">
      <path
        d="M19.042 18.067 1.832.857a1.003 1.003 0 0 0-.756-.319C.942.538.79.572.673.622a1.079 1.079 0 0 0-.672.992v25.277c0 .437.269.824.672.992.118.05.269.084.403.084.286 0 .555-.118.756-.319l5.244-5.244 3.21 7.597a1.08 1.08 0 0 0 1.412.571l2.975-1.261a1.08 1.08 0 0 0 .571-1.412l-3.378-8h6.42c.437 0 .824-.269.992-.672a1.038 1.038 0 0 0-.235-1.16z" />
    </symbol>
    <symbol id="play-icon" viewBox="0 0 28 32">
      <path
        d="M26.088 12.891c2.441 1.354 2.441 4.864 0 6.218L4.933 30.848c-2.37 1.315-5.281-.399-5.281-3.109V4.262c0-2.71 2.911-4.424 5.281-3.109l21.155 11.739z" />
    </symbol>
    <symbol id="checkmark-icon" viewBox="0 0 45 32">
      <path
        d="M42.17.638a2.108 2.108 0 0 0-3.022 0L13.542 26.74 3.699 16.707c-.835-.851-2.188-.851-3.023 0s-.835 2.23 0 3.081L12.03 31.362a2.11 2.11 0 0 0 3.023 0L42.17 3.719a2.208 2.208 0 0 0 0-3.081z" />
    </symbol>
  </defs>
</svg>